<?xml version="1.0" encoding="UTF-8"?>
<svg width="512" height="512" viewBox="0 0 64 64" xmlns="http://www.w3.org/2000/svg">
  <!-- Robot Head -->
  <rect x="16" y="12" width="32" height="28" rx="4" fill="#4CAF50" stroke="#2E7D32" stroke-width="2"/>
  
  <!-- Robot Eyes -->
  <circle cx="24" cy="24" r="5" fill="white" stroke="#2E7D32" stroke-width="1"/>
  <circle cx="40" cy="24" r="5" fill="white" stroke="#2E7D32" stroke-width="1"/>
  <circle cx="24" cy="24" r="2" fill="#2E7D32"/>
  <circle cx="40" cy="24" r="2" fill="#2E7D32"/>
  
  <!-- Robot Mouth -->
  <rect x="22" y="34" width="20" height="3" rx="1.5" fill="white"/>
  
  <!-- Robot Antenna -->
  <line x1="32" y1="12" x2="32" y2="6" stroke="#2E7D32" stroke-width="2"/>
  <circle cx="32" cy="5" r="2" fill="#FFEB3B"/>
  
  <!-- Robot Body -->
  <rect x="20" y="40" width="24" height="16" rx="2" fill="#4CAF50" stroke="#2E7D32" stroke-width="2"/>
  
  <!-- Robot Controls/Buttons -->
  <circle cx="27" cy="46" r="2" fill="#FFEB3B"/>
  <circle cx="32" cy="46" r="2" fill="#FFEB3B"/>
  <circle cx="37" cy="46" r="2" fill="#FFEB3B"/>
  
  <!-- Robot Arms -->
  <rect x="10" y="44" width="10" height="4" rx="2" fill="#4CAF50" stroke="#2E7D32" stroke-width="1"/>
  <rect x="44" y="44" width="10" height="4" rx="2" fill="#4CAF50" stroke="#2E7D32" stroke-width="1"/>
  
  <!-- Robot Legs -->
  <rect x="24" y="56" width="6" height="6" rx="1" fill="#4CAF50" stroke="#2E7D32" stroke-width="1"/>
  <rect x="34" y="56" width="6" height="6" rx="1" fill="#4CAF50" stroke="#2E7D32" stroke-width="1"/>
</svg> 